<?xml version="1.0" standalone="no"?>
<!DOCTYPE svg PUBLIC "-//W3C//DTD SVG 20010904//EN"
 "http://www.w3.org/TR/2001/REC-SVG-20010904/DTD/svg10.dtd">
<svg version="1.0" xmlns="http://www.w3.org/2000/svg"
 width="1024.000000pt" height="768.000000pt" viewBox="0 0 1024.000000 768.000000"
 preserveAspectRatio="xMidYMid meet">

<g transform="translate(0.000000,768.000000) scale(0.100000,-0.100000)"
fill="#000000" stroke="none">
<path d="M0 3840 l0 -3840 5120 0 5120 0 0 3840 0 3840 -5120 0 -5120 0 0
-3840z m9256 3735 c-11 -8 -22 -12 -25 -9 -6 6 19 24 34 24 6 -1 1 -7 -9 -15z
m-36 1 c0 -11 -19 -15 -25 -6 -3 5 1 10 9 10 9 0 16 -2 16 -4z m-40 -16 c0 -5
-8 -10 -17 -10 -15 0 -16 2 -3 10 19 12 20 12 20 0z m-840 -144 c0 -3 -4 -8
-10 -11 -5 -3 -10 -1 -10 4 0 6 5 11 10 11 6 0 10 -2 10 -4z m-48 -22 c-12 -8
-28 -12 -34 -8 -9 6 -5 10 12 15 41 11 46 10 22 -7z m118 6 c0 -5 -7 -7 -15
-4 -8 4 -15 8 -15 10 0 2 7 4 15 4 8 0 15 -4 15 -10z m-183 -26 c-3 -3 -12 -4
-19 -1 -8 3 -5 6 6 6 11 1 17 -2 13 -5z m90 -64 c7 0 13 -4 13 -9 0 -5 6 -11
13 -14 6 -2 -1 -2 -18 1 -39 5 -60 25 -50 49 7 17 8 16 18 -4 5 -13 16 -23 24
-23z m13 26 c0 -3 -4 -8 -10 -11 -5 -3 -10 -1 -10 4 0 6 5 11 10 11 6 0 10 -2
10 -4z m114 -31 c-4 -8 -10 -15 -14 -15 -5 0 -16 -3 -24 -6 -12 -5 -15 -2 -10
9 5 14 19 21 46 26 4 0 5 -6 2 -14z m-671 -110 c-7 -21 -13 -19 -13 6 0 11 4
18 10 14 5 -3 7 -12 3 -20z m1956 -139 l24 -13 -26 0 c-15 0 -27 3 -27 8 0 4
-8 10 -17 12 -15 4 -15 5 2 5 11 1 31 -5 44 -12z m-619 -291 c0 -8 -4 -15 -10
-15 -5 0 -7 7 -4 15 4 8 8 15 10 15 2 0 4 -7 4 -15z m-2357 -71 c-4 -11 -9
-12 -19 -3 -18 15 -18 14 5 16 14 1 18 -3 14 -13z m1288 -7 c-13 -13 -26 -3
-16 12 3 6 11 8 17 5 6 -4 6 -10 -1 -17z m-1371 -37 c0 -12 -5 -17 -14 -14 -7
3 -16 -2 -19 -10 -4 -9 -13 -16 -21 -16 -23 0 -8 28 23 45 33 18 31 18 31 -5z
m2433 4 c11 -11 -3 -24 -18 -18 -8 4 -12 10 -9 15 6 11 18 12 27 3z m-2412
-38 c-12 -5 -21 -14 -21 -21 0 -26 -26 -48 -49 -40 -22 7 -22 7 10 36 18 16
36 29 41 29 4 0 8 7 8 16 0 14 2 14 16 3 15 -12 14 -14 -5 -23z m1283 9 c-4
-8 -14 -15 -23 -15 -10 0 -18 7 -18 15 0 9 10 15 23 15 17 0 22 -4 18 -15z
m-1389 -4 c3 -5 1 -12 -5 -16 -5 -3 -10 1 -10 9 0 18 6 21 15 7z m-50 -38
c-26 -18 -30 -9 -8 16 11 14 19 17 22 10 2 -7 -4 -18 -14 -26z m2555 27 c0 -5
-4 -10 -10 -10 -5 0 -10 5 -10 10 0 6 5 10 10 10 6 0 10 -4 10 -10z m-1175
-20 c-3 -5 -11 -10 -16 -10 -6 0 -7 5 -4 10 3 6 11 10 16 10 6 0 7 -4 4 -10z
m-1317 -50 c7 -12 8 -20 2 -20 -5 0 -10 5 -10 11 0 5 -4 7 -10 4 -5 -3 -10 1
-10 9 0 22 13 20 28 -4z m-88 -58 c0 -15 -2 -15 -10 -2 -13 20 -13 33 0 25 6
-3 10 -14 10 -23z m50 -27 c-7 -8 -17 -12 -22 -9 -6 4 -5 10 3 15 22 14 33 10
19 -6z m-5160 -36 c0 -11 -4 -17 -10 -14 -5 3 -10 13 -10 21 0 8 5 14 10 14 6
0 10 -9 10 -21z m0 -51 c0 -22 -16 -38 -40 -43 -23 -4 -23 -4 5 25 32 34 35
35 35 18z m5090 -12 c0 -3 -4 -8 -10 -11 -5 -3 -10 -1 -10 4 0 6 5 11 10 11 6
0 10 -2 10 -4z m-1195 -26 c3 -6 -4 -10 -18 -10 -14 0 -40 -7 -60 -15 -19 -8
-37 -12 -39 -9 -3 2 -21 -3 -41 -11 -21 -8 -37 -11 -37 -6 0 9 71 37 130 51
50 11 58 11 65 0z m-3963 -52 c-7 -7 -12 -8 -12 -2 0 14 12 26 19 19 2 -3 -1
-11 -7 -17z m8466 -167 c3 -8 0 -11 -7 -7 -6 4 -11 1 -11 -6 0 -9 -3 -9 -10 2
-5 8 -10 19 -10 23 0 14 33 3 38 -12z m32 -41 c0 -5 -4 -10 -10 -10 -5 0 -10
5 -10 10 0 6 5 10 10 10 6 0 10 -4 10 -10z m-7 -40 c28 0 29 -1 12 -14 -15
-11 -21 -11 -37 3 -10 8 -18 20 -17 26 0 5 3 4 6 -2 2 -7 19 -13 36 -13z m-64
-6 c5 4 12 2 15 -3 14 -22 -18 -22 -38 0 -11 12 -13 17 -4 10 9 -7 22 -10 27
-7z m114 -9 c-3 -9 -8 -14 -10 -11 -3 3 -2 9 2 15 9 16 15 13 8 -4z m-38 -65
c3 -5 2 -10 -4 -10 -5 0 -13 5 -16 10 -3 6 -2 10 4 10 5 0 13 -4 16 -10z
m-2135 -244 c0 -2 -8 -10 -17 -17 -16 -13 -17 -12 -4 4 13 16 21 21 21 13z
m-36 -78 c-3 -4 -9 -8 -15 -8 -5 0 -9 4 -9 8 0 5 7 9 15 9 8 0 12 -4 9 -9z
m-2729 -166 c-3 -3 -11 0 -18 7 -9 10 -8 11 6 5 10 -3 15 -9 12 -12z m1565
-179 c-10 -16 -11 -15 -6 7 3 14 6 32 7 40 1 8 4 5 6 -7 2 -12 -1 -30 -7 -40z
m-5483 -548 c-4 -8 -11 -15 -17 -15 -7 0 -7 6 0 21 13 23 26 19 17 -6z m42
-14 c14 -9 9 -41 -7 -41 -15 0 -34 28 -27 40 8 12 16 13 34 1z m2229 -552
c-11 -7 -11 -9 0 -9 17 0 82 -49 82 -61 0 -5 -22 3 -50 18 -37 20 -50 33 -50
50 0 16 4 21 16 16 13 -5 13 -7 2 -14z m-3068 -239 c0 -11 -6 -20 -14 -20 -9
0 -12 7 -9 20 3 11 9 20 14 20 5 0 9 -9 9 -20z m2700 -200 c0 -5 -4 -10 -10
-10 -5 0 -10 5 -10 10 0 6 5 10 10 10 6 0 10 -4 10 -10z m-666 -745 c-4 -8 -8
-15 -10 -15 -2 0 -4 7 -4 15 0 8 4 15 10 15 5 0 7 -7 4 -15z m656 -175 c0 -5
-5 -10 -11 -10 -5 0 -7 5 -4 10 3 6 8 10 11 10 2 0 4 -4 4 -10z m-130 -395 c0
-16 -27 -28 -35 -15 -7 12 17 40 28 33 4 -2 7 -10 7 -18z m-1120 -344 c0 -6
-4 -13 -10 -16 -5 -3 -10 1 -10 9 0 9 5 16 10 16 6 0 10 -4 10 -9z m2150
-1140 c0 -12 -28 -22 -34 -12 -3 5 -3 11 1 15 9 9 33 7 33 -3z m90 -575 c0 -3
-4 -8 -10 -11 -5 -3 -10 -1 -10 4 0 6 5 11 10 11 6 0 10 -2 10 -4z m-30 -41
c0 -8 -4 -15 -10 -15 -5 0 -7 7 -4 15 4 8 8 15 10 15 2 0 4 -7 4 -15z m-130
-5 c0 -5 -2 -10 -4 -10 -3 0 -8 5 -11 10 -3 6 -1 10 4 10 6 0 11 -4 11 -10z
m74 -56 c4 -10 1 -14 -6 -12 -15 5 -23 28 -10 28 5 0 13 -7 16 -16z"/>
</g>
</svg>
