<?xml version="1.0" standalone="no"?>
<!DOCTYPE svg PUBLIC "-//W3C//DTD SVG 20010904//EN"
 "http://www.w3.org/TR/2001/REC-SVG-20010904/DTD/svg10.dtd">
<svg version="1.0" xmlns="http://www.w3.org/2000/svg"
 width="370.000000pt" height="177.000000pt" viewBox="0 0 370.000000 177.000000"
 preserveAspectRatio="xMidYMid meet">

<g transform="translate(0.000000,177.000000) scale(0.100000,-0.100000)"
fill="#000000" stroke="none">
<path d="M0 885 l0 -885 660 0 660 0 0 35 0 35 1190 0 1190 0 0 790 0 790
-1190 0 -1190 0 0 60 0 60 -660 0 -660 0 0 -885z m1420 5 l0 -220 -45 0 -45 0
0 220 0 220 45 0 45 0 0 -220z m-610 176 c76 -50 106 -175 67 -278 -43 -112
-176 -157 -287 -96 -114 62 -129 261 -27 356 61 57 176 65 247 18z m452 16 c6
-6 7 -23 4 -39 -7 -29 -7 -29 -74 -25 -62 4 -71 2 -99 -22 -38 -32 -57 -85
-50 -138 11 -83 71 -125 163 -114 51 6 52 6 58 -26 3 -17 4 -34 0 -37 -11 -12
-153 -13 -188 -1 -98 32 -150 135 -125 250 15 69 73 134 138 155 49 16 156 14
173 -3z m-910 -20 c67 -42 83 -75 83 -173 0 -76 -3 -90 -28 -127 -43 -66 -91
-85 -224 -90 l-113 -4 0 204 c0 113 3 208 8 212 4 4 59 6 122 4 99 -3 120 -6
152 -26z m1366 -115 c26 -26 27 -32 30 -152 l4 -125 -41 0 c-28 0 -41 4 -41
14 0 10 -9 9 -41 -7 -35 -17 -46 -18 -79 -8 -65 19 -88 77 -55 140 16 31 77
61 125 61 36 0 45 13 24 34 -18 18 -45 20 -92 7 -30 -9 -34 -8 -42 15 -6 14
-10 27 -10 29 0 12 73 24 128 22 53 -3 67 -7 90 -30z m292 23 c11 -6 17 -17
15 -25 -3 -8 -7 -22 -10 -30 -3 -12 -10 -13 -32 -4 -34 13 -73 4 -73 -17 0 -8
20 -24 45 -35 25 -11 54 -30 65 -41 28 -30 26 -80 -4 -115 -23 -27 -29 -28
-109 -28 -47 0 -88 2 -91 6 -3 3 -2 18 3 35 6 21 13 28 27 26 10 -1 36 -5 56
-9 29 -4 39 -2 44 11 8 22 -11 43 -46 51 -93 20 -107 140 -20 174 33 13 107
14 130 1z m270 0 c11 -6 17 -17 15 -25 -3 -8 -7 -22 -10 -30 -3 -12 -10 -13
-32 -4 -34 13 -73 4 -73 -17 0 -8 20 -24 45 -35 25 -11 54 -30 65 -41 28 -30
26 -80 -4 -115 -23 -27 -29 -28 -109 -28 -47 0 -88 2 -91 6 -3 3 -2 18 3 35 6
21 13 28 27 26 10 -1 36 -5 56 -9 29 -4 39 -2 44 11 8 22 -11 43 -46 51 -93
20 -107 140 -20 174 33 13 107 14 130 1z m466 2 c7 -4 8 -18 3 -37 -8 -29 -11
-30 -48 -27 -54 5 -91 -30 -91 -87 0 -52 34 -81 97 -81 44 0 44 0 41 -32 -3
-33 -3 -33 -62 -36 -70 -4 -107 10 -141 50 -64 76 -33 204 60 244 32 14 123
18 141 6z m268 -6 c54 -22 81 -70 81 -143 0 -70 -19 -104 -76 -138 -45 -26
-130 -25 -167 2 -43 32 -65 69 -69 120 -11 126 110 210 231 159z m379 -6 l26
-20 33 20 c47 28 99 26 130 -5 32 -32 38 -62 38 -186 l0 -99 -45 0 -45 0 0
100 c0 87 -3 103 -20 120 -24 24 -30 24 -56 6 -16 -12 -19 -29 -22 -120 l-4
-106 -44 0 -44 0 0 104 c0 82 -3 108 -16 120 -19 20 -24 20 -52 0 -20 -14 -22
-23 -22 -120 l0 -104 -45 0 -45 0 0 150 0 150 35 0 c22 0 38 -6 41 -15 5 -13
10 -12 31 5 34 26 93 26 126 0z m-945 -196 c51 -35 8 -117 -50 -95 -42 16 -50
59 -18 91 24 24 38 25 68 4z"/>
<path d="M664 1020 c-78 -32 -99 -187 -34 -252 60 -59 149 -21 165 70 19 115
-53 215 -131 182z"/>
<path d="M170 880 l0 -143 51 5 c40 4 58 12 82 36 28 28 32 39 35 101 4 64 2
70 -25 101 -25 28 -38 34 -86 38 l-57 4 0 -142z"/>
<path d="M1608 809 c-31 -12 -45 -44 -28 -64 29 -35 80 -5 80 46 0 31 -8 34
-52 18z"/>
<path d="M2905 895 c-50 -49 -25 -165 35 -165 60 0 85 116 35 165 -13 14 -29
25 -35 25 -6 0 -22 -11 -35 -25z"/>
</g>
</svg>
